first trial
nRows=19
nColumns=38

# SIMM Motion File Header:
name Sujet_05_velo_100.mvnx
datacolumns 38
datarows 19
otherdata 1
range 8.0170 8.3160
endheader
time pelvis_tilt  pelvis_list  pelvis_rotation  pelvis_tx  pelvis_ty  pelvis_tz  hip_flexion_r  hip_adduction_r  hip_rotation_r  knee_angle_r  ankle_angle_r  subtalar_angle_r  mtp_angle_r  hip_flexion_l  hip_adduction_l  hip_rotation_l  knee_angle_l  ankle_angle_l  subtalar_angle_l  mtp_angle_l  lumbar_extension  lumbar_bending  lumbar_rotation  arm_flex_r  arm_add_r  arm_rot_r  elbow_flex_r  pro_sup_r  wrist_flex_r  wrist_dev_r  arm_flex_l  arm_add_l  arm_rot_l  elbow_flex_l  pro_sup_l  wrist_flex_l  wrist_dev_l
8.0170	-6.5919	0.7342	-85.7060	0.0000	1.2500	-0.0000	58.2376	-11.4959	-24.6794	52.4131	-9.8130	6.4596	0.0000	55.3703	-12.2706	-21.5559	89.6940	-14.9641	19.5389	-0.0000	-22.7281	0.0229	-1.4337	88.8820	-7.7601	15.8143	5.5822	74.6892	-55.4574	-38.9613	100.6835	-12.3855	25.4103	-1.6947	52.1524	-34.8760	-18.7099	
8.0330	-6.2958	1.4197	-85.1088	0.0000	1.2500	-0.0000	52.6939	-11.1285	-26.2643	45.6553	-11.8436	6.5235	-0.0000	59.4164	-12.1745	-20.6544	95.7321	-14.5162	19.9297	-0.0000	-22.7309	-0.4901	-1.7840	88.3519	-7.7379	15.0912	5.7961	74.5377	-55.5832	-38.9247	100.5456	-11.8318	25.9808	-1.5026	52.8097	-34.8884	-18.4865	
8.0500	-6.0593	2.0240	-84.5911	0.0000	1.2500	-0.0000	47.7098	-10.7353	-27.4392	40.0900	-14.0929	6.5651	0.0000	63.3242	-12.0229	-19.8462	100.5496	-13.4379	19.8421	0.0000	-22.7205	-0.9436	-2.0814	87.8126	-7.8177	14.3535	6.0665	74.4561	-55.6176	-38.8731	100.2585	-11.3366	26.2818	-1.1568	53.5307	-34.7838	-18.2177	
8.0670	-5.8808	2.5464	-84.1520	0.0000	1.2500	-0.0000	43.4094	-10.3767	-28.0380	35.8182	-16.9794	6.7386	0.0000	67.0584	-11.7567	-19.1503	103.9853	-11.1147	18.8091	-0.0000	-22.6703	-1.3246	-2.3104	87.1500	-8.0908	13.5445	6.4670	74.5024	-55.4847	-38.7914	99.6498	-10.9234	26.0237	-0.5276	54.4687	-34.4243	-17.8266	
8.0830	-5.7664	2.9905	-83.7892	0.0000	1.2500	-0.0000	39.6400	-10.1153	-28.2100	32.7339	-20.1156	6.9799	-0.0000	70.6509	-11.4570	-18.5308	106.2036	-8.1440	17.2871	0.0000	-22.6018	-1.6457	-2.4877	86.4705	-8.4676	12.7164	6.9244	74.6161	-55.2597	-38.6952	98.9031	-10.5816	25.5051	0.2410	55.4626	-33.9492	-17.3907	
8.1000	-5.8009	3.3986	-83.5774	0.0000	1.2500	-0.0000	36.8536	-10.0147	-28.2392	31.3602	-22.1158	7.0453	-0.0000	73.8072	-11.2005	-17.7247	106.9569	-5.8677	16.0343	0.0000	-22.5549	-1.9128	-2.6079	86.1200	-8.7776	12.2064	7.2181	74.5354	-55.0602	-38.6620	98.4769	-10.3417	25.2455	0.7789	56.0613	-33.6240	-17.1355	
8.1170	-6.0769	3.8869	-83.5606	0.0000	1.2500	-0.0000	35.2327	-10.1674	-28.2616	31.9348	-22.1536	6.6789	-0.0000	76.6759	-11.0229	-16.3194	106.0326	-5.0024	15.2915	-0.0000	-22.5485	-2.1603	-2.6751	86.3107	-8.9611	12.2168	7.2170	74.0713	-54.9387	-38.7559	98.6217	-10.2099	25.5741	0.9170	55.9735	-33.5847	-17.1969	
8.1330	-6.5057	4.3396	-83.6902	0.0000	1.2500	-0.0000	34.5962	-10.5008	-28.1319	34.1900	-21.0184	6.0521	0.0000	79.1106	-10.8715	-14.6805	103.6785	-4.8194	14.7399	-0.0000	-22.5609	-2.3527	-2.6879	86.8387	-9.0913	12.5490	7.0468	73.4120	-54.8428	-38.9137	99.0890	-10.1727	26.1607	0.8372	55.4952	-33.6924	-17.4368	
8.1500	-6.8999	4.4504	-83.9082	0.0000	1.2500	-0.0000	34.8593	-10.7994	-27.6980	37.8860	-19.7173	5.5008	0.0000	80.3787	-10.7262	-13.7033	100.3057	-4.5173	14.3379	0.0000	-22.5712	-2.3912	-2.6309	87.4325	-9.1958	12.9403	6.8856	72.8715	-54.7357	-39.0252	99.5900	-10.2193	26.5314	0.7117	55.0648	-33.7996	-17.6702	
8.1660	-7.2115	4.0622	-84.2054	0.0000	1.2500	-0.0000	36.1334	-10.9175	-26.8694	43.3366	-18.3260	5.1223	-0.0000	80.1425	-10.5694	-13.8280	95.8623	-3.5622	14.0994	0.0000	-22.5783	-2.2302	-2.4837	88.0557	-9.2890	13.3207	6.8473	72.5255	-54.5912	-39.0429	100.1286	-10.3871	26.4486	0.5902	54.8995	-33.8442	-17.8276	
8.1830	-7.4825	3.3304	-84.5981	0.0000	1.2500	-0.0000	38.3181	-10.9592	-25.7523	50.2219	-16.7958	4.7538	0.0000	78.7517	-10.4481	-14.6177	90.3615	-2.5158	14.0878	-0.0000	-22.5862	-1.9166	-2.2638	88.7461	-9.3492	13.7594	6.8260	72.3026	-54.4358	-39.0144	100.7008	-10.6377	26.1500	0.4234	54.7830	-33.8887	-17.9789	
8.1990	-7.6582	2.4211	-85.0664	0.0000	1.2500	-0.0000	41.0131	-11.0832	-24.4826	57.3568	-15.9259	4.3876	0.0000	76.5062	-10.4629	-15.6705	84.2907	-2.2347	14.4088	0.0000	-22.5822	-1.4897	-2.0115	89.3432	-9.3432	14.1995	6.6786	72.3026	-54.3126	-38.9737	101.0074	-10.8391	25.8714	0.2368	54.5069	-33.9729	-18.1476	
8.2160	-7.6984	1.3034	-85.5937	0.0000	1.2500	-0.0000	44.1910	-11.3540	-22.9348	64.6129	-16.2994	3.9649	0.0000	73.3490	-10.6370	-16.9447	77.5439	-3.1823	15.2501	0.0000	-22.5529	-0.9047	-1.7193	89.7870	-9.2601	14.6299	6.2579	72.5877	-54.2118	-38.9521	100.8471	-10.9054	25.6927	0.0230	53.9151	-34.1133	-18.3614	
8.2330	-7.6351	0.0113	-86.1919	0.0000	1.2500	-0.0000	47.9037	-11.6553	-21.2593	72.0768	-17.3120	3.4875	-0.0000	69.3374	-10.9148	-18.5571	70.1820	-4.8666	16.4210	-0.0000	-22.5202	-0.2041	-1.3982	90.1335	-9.1041	15.0589	5.7094	73.0965	-54.1434	-38.9186	100.4227	-10.9117	25.5334	-0.2126	53.1634	-34.2944	-18.5932	
8.2490	-7.5262	-1.1921	-86.8811	0.0000	1.2500	-0.0000	51.8468	-11.9272	-19.9717	78.9421	-17.9487	3.1619	-0.0000	64.9300	-11.2793	-20.3440	63.0022	-6.7339	17.4401	-0.0000	-22.5202	0.4410	-1.1151	90.3956	-8.8694	15.4579	5.3263	73.7429	-54.1791	-38.8136	100.0403	-10.9718	25.3859	-0.4278	52.5101	-34.5071	-18.7840	
8.2660	-7.3639	-2.2430	-87.7551	0.0000	1.2500	-0.0000	56.0272	-12.2074	-19.3928	85.1459	-17.9365	3.3004	-0.0000	59.9660	-11.7394	-22.4610	55.9830	-8.6740	18.0976	-0.0000	-22.5811	0.9799	-0.9051	90.5909	-8.4389	15.9175	5.1811	74.5157	-54.3988	-38.5881	99.8815	-11.1399	25.3187	-0.6941	51.9837	-34.8057	-18.9245	
8.2830	-7.1536	-3.2021	-88.7179	0.0000	1.2500	-0.0000	60.3988	-12.5308	-19.2168	90.7822	-17.5187	3.7102	-0.0000	54.5960	-12.1553	-24.8298	49.2047	-10.8205	18.5850	-0.0000	-22.6739	1.4608	-0.7317	90.6947	-7.9334	16.3421	5.1950	75.4213	-54.7227	-38.2884	99.7621	-11.3685	25.2618	-0.9465	51.5535	-35.1343	-19.0215	
8.3000	-6.9850	-3.9966	-89.5122	0.0000	1.2500	-0.0000	64.5755	-12.8413	-18.9704	95.3188	-16.4727	3.9429	-0.0000	49.7426	-12.4064	-26.8291	43.6636	-13.0215	19.0498	-0.0000	-22.7388	1.8608	-0.5520	90.6720	-7.7159	16.4361	5.4263	76.3948	-54.9833	-38.0002	99.4374	-11.6246	24.9966	-0.9247	51.3930	-35.3179	-19.0425	
8.3160	-6.8835	-4.5747	89.9387	0.0000	1.2500	-0.0000	68.5846	-13.1036	-18.4786	98.7030	-14.2784	3.7422	0.0000	45.5347	-12.5524	-28.1058	39.5393	-15.4737	19.6292	0.0000	-22.7277	2.1593	-0.3402	90.4082	-8.0659	15.8699	6.0536	77.5824	-55.1046	-37.7017	98.5869	-11.8949	24.2061	-0.3951	51.8056	-35.2366	-18.9295	
